<svg width="33" height="19" viewBox="0 0 252 140" fill="none" xmlns="http://www.w3.org/2000/svg" alt="home"><path d="M1.09135 113.976C0.488705 113.374 0.18738 113.072 0.0744812 112.725C-0.0248271 112.419 -0.0248271 112.09 0.0744812 111.784C0.18738 111.437 0.488705 111.136 1.09136 110.533L38.0003 73.6241C38.6029 73.0214 38.9042 72.7201 39.2517 72.6072C39.5574 72.5079 39.8866 72.5079 40.1922 72.6072C40.5397 72.7201 40.841 73.0214 41.4437 73.6241L78.3526 110.533C78.9552 111.136 79.2566 111.437 79.3695 111.784C79.4688 112.09 79.4688 112.419 79.3695 112.725C79.2566 113.072 78.9552 113.374 78.3526 113.976L74.1559 118.173C62.1029 130.226 56.0764 136.253 49.1271 138.511C43.0143 140.497 36.4296 140.497 30.3168 138.511C23.3675 136.253 17.341 130.226 5.288 118.173L1.09135 113.976Z" fill="#020416"></path><path d="M44.1339 70.9339C43.5313 70.3313 43.2299 70.0299 43.117 69.6825C43.0177 69.3768 43.0177 69.0476 43.117 68.742C43.2299 68.3945 43.5313 68.0932 44.1339 67.4905L81.0428 30.5816C81.6455 29.9789 81.9468 29.6776 82.2943 29.5647C82.5998 29.4654 82.9292 29.4654 83.2348 29.5647C83.5823 29.6776 83.8836 29.9789 84.4862 30.5816L121.395 67.4905C121.998 68.0932 122.299 68.3945 122.412 68.742C122.511 69.0476 122.511 69.3768 122.412 69.6825C122.299 70.0299 121.998 70.3313 121.395 70.9339L84.4862 107.843C83.8836 108.445 83.5823 108.747 83.2348 108.86C82.9292 108.959 82.5998 108.959 82.2943 108.86C81.9468 108.747 81.6455 108.445 81.0428 107.843L44.1339 70.9339Z" fill="#020416"></path><path d="M87.1717 113.972C86.5734 113.373 86.2742 113.074 86.161 112.73C86.0596 112.421 86.0596 112.088 86.161 111.78C86.2742 111.435 86.5734 111.136 87.1717 110.538L124.085 73.6241C124.688 73.0214 124.989 72.7201 125.337 72.6072C125.642 72.5079 125.972 72.5079 126.277 72.6072C126.625 72.7201 126.926 73.0214 127.529 73.6241L164.442 110.538C165.04 111.136 165.34 111.435 165.453 111.78C165.554 112.088 165.554 112.421 165.453 112.73C165.34 113.074 165.04 113.373 164.442 113.972C150.98 127.434 144.248 134.165 136.496 136.713C129.553 138.995 122.061 138.995 115.117 136.713C107.365 134.165 100.634 127.434 87.1717 113.972Z" fill="#020416"></path><path d="M130.219 70.9339C129.616 70.3313 129.315 70.0299 129.202 69.6825C129.103 69.3768 129.103 69.0476 129.202 68.742C129.315 68.3945 129.616 68.0932 130.219 67.4905L167.128 30.5816C167.73 29.9789 168.032 29.6776 168.379 29.5647C168.685 29.4654 169.014 29.4654 169.32 29.5647C169.667 29.6776 169.968 29.9789 170.571 30.5816L207.48 67.4905C208.083 68.0932 208.384 68.3945 208.497 68.742C208.596 69.0476 208.596 69.3768 208.497 69.6825C208.384 70.0299 208.083 70.3313 207.48 70.9339L170.571 107.843C169.968 108.445 169.667 108.747 169.32 108.86C169.014 108.959 168.685 108.959 168.379 108.86C168.032 108.747 167.73 108.445 167.128 107.843L130.219 70.9339Z" fill="#020416"></path><path d="M173.261 113.976C172.659 113.374 172.357 113.072 172.244 112.725C172.145 112.419 172.145 112.09 172.244 111.784C172.357 111.437 172.659 111.136 173.261 110.533L210.17 73.6241C210.773 73.0214 211.074 72.7201 211.422 72.6072C211.727 72.5079 212.056 72.5079 212.362 72.6072C212.71 72.7201 213.011 73.0214 213.614 73.6241L250.522 110.533C251.125 111.136 251.426 111.437 251.539 111.784C251.639 112.09 251.639 112.419 251.539 112.725C251.426 113.072 251.125 113.374 250.522 113.976L246.326 118.173C234.273 130.226 228.246 136.253 221.297 138.511C215.184 140.497 208.6 140.497 202.487 138.511C195.537 136.253 189.511 130.226 177.458 118.173L173.261 113.976Z" fill="#020416"></path><path d="M87.0868 27.8867C86.4884 27.2884 86.1893 26.9892 86.0761 26.6447C85.9746 26.3361 85.9746 26.0031 86.0761 25.6945C86.1893 25.35 86.4884 25.0508 87.0868 24.4525C100.549 10.99 107.28 4.25882 115.032 1.71137C121.976 -0.570457 129.468 -0.570457 136.412 1.71137C144.163 4.25882 150.895 10.99 164.357 24.4525C164.955 25.0508 165.255 25.35 165.368 25.6945C165.469 26.0031 165.469 26.3361 165.368 26.6447C165.255 26.9892 164.955 27.2884 164.357 27.8867L127.444 64.8002C126.841 65.4029 126.54 65.7042 126.192 65.8171C125.887 65.9164 125.557 65.9164 125.252 65.8171C124.904 65.7042 124.603 65.4029 124 64.8002L87.0868 27.8867Z" fill="#4A90E2"></path></svg>